<svg xmlns="http://www.w3.org/2000/svg" viewBox="0 0 100 100">
  <defs>
    <linearGradient id="grad1" x1="0%" y1="0%" x2="100%" y2="100%">
      <stop offset="0%" style="stop-color:#4A90E2;stop-opacity:1" />
      <stop offset="100%" style="stop-color:#357ABD;stop-opacity:1" />
    </linearGradient>
  </defs>
  
  <!-- Background circle -->
  <circle cx="50" cy="50" r="48" fill="url(#grad1)" stroke="#2C5F8D" stroke-width="2"/>
  
  <!-- Book/Notebook icon -->
  <rect x="30" y="25" width="40" height="50" rx="2" fill="#FFFFFF" opacity="0.95"/>
  <rect x="30" y="25" width="40" height="50" rx="2" fill="none" stroke="#4A90E2" stroke-width="1.5"/>
  
  <!-- Lines on the book (representing pages) -->
  <line x1="38" y1="35" x2="62" y2="35" stroke="#4A90E2" stroke-width="1.5" stroke-linecap="round"/>
  <line x1="38" y1="42" x2="58" y2="42" stroke="#4A90E2" stroke-width="1.5" stroke-linecap="round"/>
  <line x1="38" y1="49" x2="60" y2="49" stroke="#4A90E2" stroke-width="1.5" stroke-linecap="round"/>
  <line x1="38" y1="56" x2="55" y2="56" stroke="#4A90E2" stroke-width="1.5" stroke-linecap="round"/>
  
  <!-- Graduation cap -->
  <path d="M 25 35 Q 25 30 30 28 Q 35 26 50 28 Q 65 26 70 28 Q 75 30 75 35 L 75 38 Q 75 40 73 41 L 50 50 L 27 41 Q 25 40 25 38 Z" fill="#FFD700" stroke="#FFA500" stroke-width="1"/>
  <ellipse cx="50" cy="28" rx="25" ry="3" fill="#FFD700" opacity="0.8"/>
  
  <!-- Small star decoration -->
  <path d="M 50 20 L 51.5 24 L 56 24 L 52.5 26.5 L 54 31 L 50 28.5 L 46 31 L 47.5 26.5 L 44 24 L 48.5 24 Z" fill="#FFD700"/>
</svg>

